/* XPM */
static char * bottom_right_inactive_xpm[] = {
"4 4 4 1",
" 	c None",
".	c #F2F1F2",
"+	c #353531",
"@	c #484741",
"..+@",
".++@",
"++@ ",
"@@  "};
