/* XPM */
static char * bottom_left_active_xpm[] = {
"4 4 4 1",
" 	c None",
".	c #484741",
"+	c #353531",
"@	c #F2F1F2",
".+@@",
".++@",
" .++",
"  .."};
