/* XPM */
static char * bottom_inactive_xpm[] = {
"15 2 2 1",
" 	c #353531",
".	c #484741",
"               ",
"..............."};
