/* XPM */
static char * right_active_xpm[] = {
"2 15 2 1",
" 	c #353531",
".	c #484741",
" .",
" .",
" .",
" .",
" .",
" .",
" .",
" .",
" .",
" .",
" .",
" .",
" .",
" .",
" ."};
